<svg width="32" height="32" viewBox="0 0 32 32" fill="none" xmlns="http://www.w3.org/2000/svg">
  <!-- Dark outline layer (rendered first, behind the cyan) -->
  <g stroke="#0A0E13" stroke-width="3.5" stroke-linecap="round" stroke-linejoin="round" fill="none">
    <line x1="16" y1="16" x2="16" y2="4"/>
    <line x1="16" y1="16" x2="26.39" y2="10"/>
    <line x1="16" y1="16" x2="26.39" y2="22"/>
    <line x1="16" y1="16" x2="16" y2="28"/>
    <line x1="16" y1="16" x2="5.61" y2="22"/>
    <line x1="16" y1="16" x2="5.61" y2="10"/>
    <polygon points="16,4 26.39,10 26.39,22 16,28 5.61,22 5.61,10"/>
  </g>
  <g fill="#0A0E13">
    <circle cx="16" cy="4" r="3.5"/>
    <circle cx="26.39" cy="10" r="3.5"/>
    <circle cx="26.39" cy="22" r="3.5"/>
    <circle cx="16" cy="28" r="3.5"/>
    <circle cx="5.61" cy="22" r="3.5"/>
    <circle cx="5.61" cy="10" r="3.5"/>
    <circle cx="16" cy="16" r="4"/>
  </g>
  <!-- Cyan foreground -->
  <line x1="16" y1="16" x2="16" y2="4" stroke="#00E5FF" stroke-width="1.2" stroke-linecap="round"/>
  <line x1="16" y1="16" x2="26.39" y2="10" stroke="#00E5FF" stroke-width="1.2" stroke-linecap="round"/>
  <line x1="16" y1="16" x2="26.39" y2="22" stroke="#00E5FF" stroke-width="1.2" stroke-linecap="round"/>
  <line x1="16" y1="16" x2="16" y2="28" stroke="#00E5FF" stroke-width="1.2" stroke-linecap="round"/>
  <line x1="16" y1="16" x2="5.61" y2="22" stroke="#00E5FF" stroke-width="1.2" stroke-linecap="round"/>
  <line x1="16" y1="16" x2="5.61" y2="10" stroke="#00E5FF" stroke-width="1.2" stroke-linecap="round"/>
  <polygon points="16,4 26.39,10 26.39,22 16,28 5.61,22 5.61,10" stroke="#00E5FF" stroke-width="1.2" stroke-linejoin="round" fill="none"/>
  <circle cx="16" cy="4" r="2" fill="#00E5FF"/>
  <circle cx="26.39" cy="10" r="2" fill="#00E5FF"/>
  <circle cx="26.39" cy="22" r="2" fill="#00E5FF"/>
  <circle cx="16" cy="28" r="2" fill="#00E5FF"/>
  <circle cx="5.61" cy="22" r="2" fill="#00E5FF"/>
  <circle cx="5.61" cy="10" r="2" fill="#00E5FF"/>
  <circle cx="16" cy="16" r="2.4" fill="#00E5FF"/>
</svg>
